<svg width="512" height="512" viewBox="0 0 512 512" fill="none" xmlns="http://www.w3.org/2000/svg">
<path d="M299.534 83.8336C331.167 83.8336 361.187 88.6136 388.086 100.062L388.092 100.05C415.394 111.377 438.637 129.028 455.215 153.773C472.199 178.909 479.392 207.831 479.392 237.85C479.392 261.678 474.815 284.914 464.271 306.332L464.203 306.469L464.134 306.613C453.151 328.579 436.678 346.22 415.636 358.778L415.367 358.935L415.104 359.091C396.769 369.737 376.639 375.063 356.036 376.603V434.006H211.251C177.765 434.006 145.909 427.654 117.648 412.621L117.547 412.571L117.447 412.514C89.964 397.738 68.063 376.456 52.9153 349.19L52.7526 348.896L52.5961 348.596C37.8882 321.281 31.3922 290.92 31.3922 259.073C31.3924 227.119 37.8503 196.635 52.7088 169.344L52.7526 169.257L52.8027 169.169C67.9071 141.68 89.8153 120.181 117.447 105.325L117.547 105.275L117.648 105.219C145.909 90.1862 177.765 83.8336 211.251 83.8336H299.534Z" fill="#40BFBF"/>
<path d="M211.248 382.738C184.177 382.738 161.003 377.611 141.725 367.357C122.653 357.103 107.99 342.748 97.7357 324.29C87.6867 305.628 82.6622 283.889 82.6622 259.075C82.6622 234.055 87.6867 212.316 97.7357 193.859C107.99 175.197 122.653 160.739 141.725 150.485C161.003 140.231 184.177 135.104 211.248 135.104H299.535C326.4 135.104 349.369 139.205 368.442 147.408C387.719 155.407 402.485 167.096 412.739 182.477C422.993 197.653 428.12 216.11 428.12 237.849C428.12 255.076 424.839 270.354 418.276 283.684C411.714 296.81 402.075 307.166 389.36 314.754C376.645 322.137 361.161 325.828 342.909 325.828H206.326C191.56 325.828 180.383 322.342 172.795 315.369C165.207 308.192 161.413 298.04 161.413 284.915C161.413 271.79 165.207 261.741 172.795 254.768C180.383 247.59 191.56 244.001 206.326 244.001H304.764V237.849C304.764 227.39 299.535 222.16 289.076 222.16H178.64V192.013H298.92C314.096 192.013 325.17 195.807 332.143 203.395C339.32 210.983 342.909 220.827 342.909 232.927V295.682C358.7 295.271 370.493 290.042 378.286 279.993C386.284 269.944 390.283 255.896 390.283 237.849C390.283 212.829 382.695 194.577 367.519 183.092C352.548 171.608 330.297 165.866 300.765 165.866H210.017C180.075 165.866 157.619 173.864 142.648 189.86C127.882 205.856 120.5 228.928 120.5 259.075C120.5 289.016 127.882 311.986 142.648 327.982C157.619 343.978 180.075 351.976 210.017 351.976H304.764V382.738H211.248ZM214.631 295.682H304.764V273.841H214.631C209.71 273.841 206.223 274.866 204.172 276.917C202.122 278.762 201.096 281.429 201.096 284.915C201.096 288.196 202.122 290.862 204.172 292.913C206.223 294.759 209.71 295.682 214.631 295.682Z" fill="#E4E9E9"/>
</svg>
